<!-- Generated by IcoMoon.io -->
<svg version="1.1" xmlns="http://www.w3.org/2000/svg" width="129" height="32" viewBox="0 0 129 32">
<title>vector4</title>
<path fill="#718087" opacity="0.8" d="M29.313 21.608v6.611c-2.403 2.113-8.146 3.371-12.422 3.371-4.27 0-16.090-2.645-16.090-15.070s11.25-15.103 15.789-15.103c4.544 0 9.383 0.824 12.186 2.677v5.815c0 0.726-1.002 0.661-1.002 0-0.066-0.992-2.737-6.936-9.416-6.806-7.21 0.146-12.082 5.755-12.082 13.152s4.735 13.748 11.885 13.548c2.321-0.065 4.741-0.791 5.912-1.756l0.027-6.438c0-1.848-1.133-2.509-2.267-2.509-0.739 0-0.739-1.057 0-1.057h9.745c0.734 0 0.734 1.122 0 1.057-1.128 0-2.266 0.661-2.266 2.509zM95.012 9.914c0 0.726-0.733 0.661-0.733 0-0.071-0.992-2.737-7.137-9.416-7.001-7.21 0.141-12.088 5.95-12.088 13.347s4.675 13.943 11.819 13.748c7.144-0.201 10.549-7.202 10.818-8.129s0.734-0.791 0.734-0.065v5.419c-2.934 2.113-8.48 4.362-12.75 4.362s-16.090-2.645-16.090-15.071c0-12.431 11.217-15.401 15.756-15.401 4.544 0 9.148 1.122 11.956 2.97v5.82h-0.006zM64.766 1.85c1.067 0 1.067 0.992 0 0.992-1.133 0-2.267 0.661-2.267 2.509l-0.131 14.442c0 6.915-5.666 11.998-12.657 11.998s-12.449-5.083-12.449-11.998v-14.442c0-1.853-1.139-2.509-2.272-2.509-1.068 0-1.068-0.992 0-0.992h9.881c1.068 0 1.068 0.992 0 0.992-1.139 0-2.272 0.661-2.272 2.509l-0.011 16.127c0 4.877 4.029 8.833 8.956 8.833s8.923-4.948 8.923-9.819l-0.241-15.141c0-1.853-1.133-2.509-2.272-2.509-1.062 0-1.062-0.992 0-0.992h6.81zM127.663 9.914c0 0.726-0.734 0.661-0.734 0-0.066-0.992-2.737-7.137-9.416-7.001-7.21 0.141-12.088 5.95-12.088 13.347s4.675 13.943 11.819 13.748c7.144-0.195 10.549-7.202 10.818-8.129s0.739-0.791 0.739-0.065v5.419c-2.94 2.113-8.48 4.362-12.756 4.362-4.27 0-16.090-2.645-16.090-15.071 0-12.431 11.217-15.401 15.761-15.401 4.538 0 9.148 1.122 11.951 2.97v5.82h-0.005z"></path>
</svg>
