<!-- Generated by IcoMoon.io -->
<svg version="1.1" xmlns="http://www.w3.org/2000/svg" width="165" height="32" viewBox="0 0 165 32">
<title>vector1</title>
<path fill="#718087" d="M55.443 0.492v12.102h-16.861v-12.102l-6.141-0.005v30.515h6.141v-13.109h16.861v13.109h6.151v-30.51h-6.151zM137.138 0.493v30.502h26.942l-3.412-5.37h-17.371v-7.732h16.821v-5.172h-16.821v-6.984h17.342l3.343-5.244h-26.843zM9.614 0.485c-6.388 0-9.614 3.883-9.614 9.534v11.391c0 6.539 4.158 9.592 9.582 9.592l19.267-0.002-3.572-5.578h-14.505c-3.081 0-4.424-1.114-4.424-4.563v-10.334c0-3.334 1.13-4.634 4.506-4.634h14.574l3.43-5.406h-19.244zM110.187 0.477c-3.689 0-7.471 2.217-7.471 7.921v1.466c0 5.946 3.638 8.214 7.278 8.23h12.777c1.327 0 2.405 0.221 2.405 2.463l-0.002 2.591c-0.034 2.015-1.039 2.476-2.449 2.476h-16.809l-3.443 5.37h20.648c4.979 0 8.359-2.477 8.359-8.199v-2.103c0-5.532-3.141-8.146-8.010-8.146h-12.2c-1.352 0-2.295-0.369-2.295-2.372v-2.11c0-1.706 0.646-2.329 2.222-2.329l16.008-0.006 3.346-5.26-20.364 0.007zM79.435 0.493l-14.468 30.508h6.838l2.818-6.3h15.722l2.809 6.3h6.868l-14.502-30.508h-6.085zM82.47 6.827l5.559 12.68h-11.083l5.524-12.68z"></path>
</svg>
