<!-- Generated by IcoMoon.io -->
<svg version="1.1" xmlns="http://www.w3.org/2000/svg" width="102" height="32" viewBox="0 0 102 32">
<title>vector5</title>
<path fill="#718087" d="M53.806 7.947c0 1.14-0.913 2.058-2.046 2.058s-2.045-0.918-2.045-2.058 0.881-2.058 2.045-2.058c1.165 0.032 2.046 0.95 2.046 2.058zM45.371 12.095v0.507s-0.975-1.267-3.052-1.267c-3.43 0-6.106 2.628-6.106 6.269 0 3.609 2.644 6.268 6.106 6.268 2.109 0 3.052-1.298 3.052-1.298v0.538c0 0.253 0.189 0.443 0.441 0.443h2.549v-11.904h-2.549c-0.242 0.007-0.436 0.203-0.441 0.445v0zM45.371 19.724c-0.472 0.697-1.416 1.298-2.549 1.298-2.014 0-3.556-1.266-3.556-3.419s1.542-3.419 3.556-3.419c1.102 0 2.109 0.633 2.549 1.298v4.242zM50.249 11.651h3.021v11.904h-3.021v-11.904zM95.379 11.334c-2.077 0-3.053 1.267-3.053 1.267v-6.68h-3.021v17.634h2.549c0.252 0 0.44-0.222 0.44-0.444v-0.538s0.976 1.298 3.053 1.298c3.431 0 6.105-2.659 6.105-6.268s-2.675-6.27-6.073-6.27zM94.876 20.99c-1.165 0-2.077-0.601-2.549-1.298v-4.242c0.472-0.633 1.479-1.298 2.549-1.298 2.014 0 3.556 1.266 3.556 3.419s-1.542 3.419-3.556 3.419zM87.732 16.495v7.092h-3.022v-6.744c0-1.963-0.629-2.755-2.328-2.755-0.912 0-1.857 0.475-2.456 1.172v8.295h-3.020v-11.904h2.391c0.252 0 0.441 0.222 0.441 0.443v0.507c0.881-0.918 2.046-1.267 3.21-1.267 1.322 0 2.424 0.38 3.305 1.14 1.070 0.887 1.479 2.026 1.479 4.021zM69.573 11.334c-2.077 0-3.052 1.267-3.052 1.267v-6.68h-3.021v17.634h2.549c0.242-0.006 0.437-0.202 0.441-0.444v-0.538s0.976 1.298 3.053 1.298c3.431 0 6.106-2.659 6.106-6.268 0.031-3.61-2.643-6.27-6.074-6.27zM69.069 20.99c-1.164 0-2.077-0.601-2.549-1.298v-4.242c0.472-0.633 1.479-1.298 2.549-1.298 2.015 0 3.556 1.266 3.556 3.419s-1.542 3.419-3.556 3.419zM60.887 11.334c0.912 0 1.385 0.159 1.385 0.159v2.817s-2.518-0.855-4.091 0.95v8.326h-3.022v-11.935h2.549c0.252 0 0.44 0.222 0.44 0.443v0.507c0.567-0.665 1.795-1.267 2.738-1.267zM29.51 22.478c-0.157-0.38-0.315-0.791-0.472-1.14-0.252-0.57-0.504-1.108-0.724-1.615l-0.032-0.032c-3.067-6.797-5.392-11.493-7.824-16.125l0.869 1.816-0.094-0.19c-0.258-0.493-0.51-0.989-0.755-1.488-0.315-0.57-0.629-1.171-1.133-1.741-1.007-1.266-2.455-1.963-3.997-1.963-1.574 0-2.99 0.697-4.028 1.9-0.472 0.57-0.819 1.171-1.133 1.741-0.246 0.499-0.497 0.995-0.755 1.488l-0.095 0.19c-2.423 4.748-4.784 9.561-6.955 14.309l-0.032 0.063c-0.22 0.507-0.472 1.045-0.724 1.615-0.157 0.349-0.314 0.728-0.472 1.14-0.409 1.171-0.535 2.279-0.378 3.419 0.354 2.389 1.922 4.344 4.047 5.239l0.044 0.017c0.738 0.321 1.597 0.507 2.5 0.507 0.017 0 0.034-0 0.051-0l-0.003 0c0.252 0 0.566-0.032 0.818-0.064 1.178-0.154 2.242-0.534 3.185-1.097l-0.038 0.021c1.29-0.728 2.518-1.773 3.902-3.292 1.385 1.52 2.643 2.564 3.902 3.292 1.136 0.679 2.498 1.097 3.954 1.14l0.012 0c0.881 0 1.762-0.158 2.549-0.507 2.203-0.887 3.745-2.912 4.091-5.255 0.25-1.108 0.124-2.215-0.285-3.387zM15.317 24.125c-1.7-2.153-2.801-4.179-3.179-5.888-0.157-0.728-0.189-1.362-0.094-1.931 0.062-0.507 0.252-0.95 0.504-1.33 0.598-0.854 1.605-1.393 2.77-1.393s2.203 0.507 2.77 1.393c0.252 0.38 0.44 0.824 0.504 1.33 0.094 0.57 0.063 1.235-0.095 1.931-0.379 1.677-1.48 3.704-3.18 5.888zM27.873 25.613c-0.238 1.683-1.339 3.063-2.833 3.693l-0.031 0.012c-0.531 0.224-1.148 0.354-1.796 0.354-0.21 0-0.417-0.014-0.62-0.040l0.024 0.003c-0.787-0.095-1.574-0.349-2.392-0.823-1.133-0.634-2.266-1.615-3.588-3.071 2.077-2.564 3.336-4.907 3.808-6.996 0.22-0.982 0.252-1.868 0.157-2.692-0.125-0.816-0.425-1.543-0.861-2.17l0.011 0.017c-0.976-1.425-2.613-2.248-4.438-2.248s-3.462 0.855-4.437 2.248c-0.424 0.61-0.724 1.338-0.846 2.124l-0.004 0.029c-0.045 0.291-0.071 0.627-0.071 0.969 0 0.613 0.083 1.206 0.239 1.769l-0.011-0.046c0.472 2.089 1.762 4.464 3.808 7.028-1.29 1.456-2.455 2.438-3.588 3.071-0.818 0.475-1.605 0.728-2.391 0.823-0.167 0.020-0.361 0.031-0.558 0.031-0.66 0-1.291-0.127-1.868-0.359l0.034 0.012c-1.525-0.641-2.626-2.021-2.861-3.68l-0.003-0.025c-0.026-0.196-0.040-0.422-0.040-0.651 0-0.652 0.119-1.277 0.335-1.854l-0.012 0.036c0.094-0.317 0.252-0.633 0.409-1.013 0.22-0.507 0.472-1.045 0.724-1.583l0.032-0.063c3.102-6.845 5.416-11.51 7.83-16.115l-0.907 1.9 0.094-0.19c0.252-0.474 0.504-0.981 0.755-1.456 0.252-0.507 0.535-0.982 0.881-1.393 0.661-0.759 1.542-1.171 2.518-1.171s1.857 0.412 2.518 1.171c0.346 0.413 0.629 0.888 0.881 1.394 0.252 0.475 0.504 0.982 0.755 1.456l0.095 0.19c1.281 2.268 3.585 6.944 5.804 11.668l1.088 2.578v0.032c0.252 0.507 0.472 1.077 0.724 1.584 0.157 0.379 0.315 0.696 0.409 1.012 0.251 0.822 0.346 1.614 0.22 2.437z"></path>
</svg>
