<!-- Generated by IcoMoon.io -->
<svg version="1.1" xmlns="http://www.w3.org/2000/svg" width="145" height="32" viewBox="0 0 145 32">
<title>vector2</title>
<path fill="#718087" d="M144.153 14.303v-2.524h-3.134v-3.924l-0.105 0.033-3.001 0.918v2.973h-4.647v-1.657c-0.004-0.056-0.007-0.121-0.007-0.187 0-0.591 0.195-1.136 0.524-1.575l-0.005 0.007c0.33-0.362 0.805-0.589 1.332-0.589 0.037 0 0.073 0.001 0.109 0.003l-0.005-0c0.471 0.006 0.935 0.112 1.362 0.31l0.115 0.052v-2.656l-0.054-0.020c-0.467-0.149-1.003-0.235-1.56-0.235-0.064 0-0.127 0.001-0.19 0.003l0.009-0c-0.025-0-0.054-0.001-0.083-0.001-0.873 0-1.695 0.22-2.413 0.607l0.027-0.013c-0.718 0.392-1.295 0.962-1.683 1.654l-0.011 0.021c-0.378 0.687-0.601 1.506-0.601 2.376 0 0.028 0 0.057 0.001 0.085l-0-0.004v1.82h-2.182v2.524h2.182v10.632h3.133v-10.632h4.647v6.754c0 2.785 1.312 4.193 3.902 4.193 0.473-0.003 0.931-0.057 1.373-0.155l-0.043 0.008c0.336-0.057 0.661-0.16 0.969-0.307l0.041-0.025v-2.547l-0.128 0.084c-0.181 0.117-0.391 0.21-0.615 0.269l-0.015 0.003c-0.183 0.059-0.395 0.096-0.614 0.105l-0.005 0c-0.043 0.004-0.093 0.006-0.144 0.006-0.465 0-0.886-0.188-1.191-0.492l0 0c-0.273-0.406-0.436-0.907-0.436-1.445 0-0.085 0.004-0.169 0.012-0.251l-0.001 0.011v-6.211h3.134zM120.953 22.687c-0.052 0.003-0.112 0.005-0.173 0.005-0.991 0-1.881-0.433-2.49-1.121l-0.003-0.003c-0.603-0.789-0.967-1.789-0.967-2.875 0-0.101 0.003-0.202 0.009-0.302l-0.001 0.014c-0.006-0.093-0.010-0.201-0.010-0.31 0-1.106 0.363-2.127 0.977-2.95l-0.009 0.013c0.603-0.7 1.491-1.141 2.482-1.141 0.055 0 0.11 0.001 0.165 0.004l-0.008-0c0.047-0.002 0.102-0.004 0.158-0.004 0.959 0 1.821 0.421 2.409 1.087l0.003 0.003c0.594 0.795 0.951 1.798 0.951 2.883 0 0.118-0.004 0.236-0.013 0.352l0.001-0.016c0.008 0.106 0.012 0.229 0.012 0.353 0 1.086-0.335 2.093-0.906 2.925l0.011-0.017c-0.581 0.679-1.438 1.107-2.396 1.107-0.072 0-0.143-0.002-0.214-0.007l0.010 0zM121.092 11.457c-0.113-0.007-0.246-0.011-0.379-0.011-1.84 0-3.511 0.724-4.744 1.903l0.003-0.002c-1.153 1.257-1.86 2.94-1.86 4.789 0 0.13 0.004 0.259 0.010 0.387l-0.001-0.018c-0.005 0.099-0.008 0.216-0.008 0.333 0 1.777 0.69 3.394 1.818 4.595l-0.003-0.004c1.175 1.13 2.774 1.826 4.536 1.826 0.11 0 0.219-0.003 0.327-0.008l-0.015 0.001c0.099 0.005 0.214 0.008 0.33 0.008 1.828 0 3.484-0.734 4.691-1.924l-0.001 0.001c1.152-1.255 1.859-2.935 1.859-4.78 0-0.115-0.003-0.228-0.008-0.342l0.001 0.016c0.006-0.112 0.010-0.243 0.010-0.374 0-1.763-0.662-3.372-1.751-4.59l0.006 0.007c-1.151-1.124-2.726-1.818-4.464-1.818-0.124 0-0.248 0.004-0.37 0.011l0.017-0.001v-0.002zM109.070 11.459c-0.072-0.003-0.155-0.005-0.24-0.005-1.278 0-2.456 0.423-3.404 1.136l0.014-0.010c-0.863 0.661-1.415 1.691-1.415 2.851 0 0.025 0 0.049 0.001 0.074l-0-0.004c-0.001 0.024-0.001 0.051-0.001 0.079 0 0.559 0.112 1.092 0.316 1.578l-0.010-0.027c0.211 0.476 0.531 0.895 0.936 1.223 0.548 0.417 1.176 0.775 1.847 1.046l0.055 0.019c0.543 0.213 1.072 0.46 1.584 0.738 0.27 0.141 0.507 0.336 0.697 0.573 0.14 0.223 0.207 0.484 0.194 0.747 0 0.883-0.662 1.314-2.024 1.314-0.618-0.015-1.204-0.129-1.751-0.325l0.039 0.012c-0.669-0.222-1.25-0.524-1.773-0.902l0.019 0.013-0.13-0.093v3.016l0.048 0.022c0.533 0.233 1.090 0.405 1.661 0.513 0.529 0.12 1.14 0.194 1.766 0.204l0.007 0c0.093 0.005 0.202 0.008 0.311 0.008 1.322 0 2.545-0.426 3.538-1.148l-0.017 0.012c0.872-0.673 1.428-1.719 1.428-2.894 0-0.033-0-0.067-0.001-0.1l0 0.005c0.001-0.028 0.001-0.061 0.001-0.093 0-0.824-0.29-1.581-0.774-2.173l0.005 0.006c-0.708-0.734-1.582-1.303-2.562-1.647l-0.046-0.014c-0.71-0.241-1.325-0.569-1.876-0.979l0.018 0.013c-0.129-0.134-0.229-0.293-0.293-0.468s-0.092-0.36-0.082-0.546c-0-0.006-0-0.013-0-0.020 0-0.378 0.187-0.711 0.473-0.915l0.003-0.002c0.39-0.27 0.859-0.402 1.333-0.376 0.567 0.003 1.113 0.092 1.626 0.255l-0.039-0.011c0.492 0.143 0.959 0.36 1.386 0.643l0.128 0.088v-2.858l-0.049-0.021c-0.403-0.166-0.876-0.303-1.366-0.387l-0.041-0.006c-0.46-0.095-0.993-0.153-1.537-0.16l-0.006-0 0.004-0.003zM95.86 22.687c-0.052 0.003-0.112 0.005-0.173 0.005-0.991 0-1.881-0.433-2.49-1.121l-0.003-0.003c-0.603-0.788-0.966-1.787-0.966-2.871 0-0.101 0.003-0.202 0.009-0.301l-0.001 0.014c-0.006-0.093-0.010-0.201-0.010-0.31 0-1.106 0.363-2.127 0.977-2.95l-0.009 0.013c0.601-0.701 1.487-1.142 2.477-1.142 0.057 0 0.114 0.001 0.171 0.004l-0.008-0c0.047-0.002 0.102-0.004 0.158-0.004 0.959 0 1.821 0.421 2.409 1.087l0.003 0.003c0.594 0.795 0.951 1.798 0.951 2.883 0 0.118-0.004 0.236-0.013 0.352l0.001-0.016c0.008 0.106 0.012 0.229 0.012 0.353 0 1.086-0.335 2.093-0.906 2.925l0.011-0.017c-0.581 0.678-1.438 1.106-2.395 1.106-0.072 0-0.144-0.002-0.214-0.007l0.010 0.001-0.001-0.002zM96.001 11.46c-0.114-0.007-0.247-0.011-0.381-0.011-1.84 0-3.51 0.724-4.743 1.902l0.003-0.002c-1.154 1.258-1.861 2.941-1.861 4.79 0 0.13 0.003 0.258 0.010 0.386l-0.001-0.018c-0.005 0.099-0.008 0.215-0.008 0.332 0 1.778 0.691 3.395 1.819 4.596l-0.003-0.004c1.175 1.13 2.774 1.826 4.536 1.826 0.11 0 0.219-0.003 0.327-0.008l-0.015 0.001c0.099 0.005 0.214 0.008 0.33 0.008 1.828 0 3.484-0.734 4.691-1.924l-0.001 0.001c1.152-1.255 1.859-2.935 1.859-4.78 0-0.115-0.003-0.228-0.008-0.342l0.001 0.016c0.006-0.111 0.010-0.242 0.010-0.373 0-1.764-0.662-3.373-1.752-4.593l0.006 0.007c-0.634-0.618-1.389-1.098-2.218-1.41s-1.714-0.447-2.598-0.398v-0.002zM84.274 14.057v-2.279h-3.095v13.156h3.095v-6.73c-0.003-0.062-0.005-0.136-0.005-0.209 0-0.962 0.29-1.857 0.787-2.602l-0.011 0.017c0.43-0.641 1.152-1.057 1.972-1.057 0.011 0 0.022 0 0.033 0l-0.002-0c0.315 0.005 0.627 0.050 0.93 0.136 0.255 0.057 0.499 0.155 0.721 0.292l0.13 0.094v-3.119l-0.050-0.022c-0.321-0.118-0.691-0.187-1.078-0.187-0.047 0-0.094 0.001-0.141 0.003l0.007-0c-0.009-0-0.019-0-0.029-0-0.779 0-1.493 0.28-2.046 0.746l0.005-0.004c-0.531 0.468-0.94 1.063-1.182 1.737l-0.009 0.029-0.035-0.001zM75.637 11.461c-0.046-0.001-0.099-0.002-0.153-0.002-1.322 0-2.565 0.336-3.65 0.927l0.040-0.020c-1.066 0.595-1.915 1.467-2.466 2.519l-0.016 0.034c-0.538 1.056-0.853 2.304-0.853 3.625 0 0.055 0.001 0.11 0.002 0.164l-0-0.008c-0 0.027-0.001 0.058-0.001 0.090 0 1.208 0.307 2.345 0.848 3.336l-0.018-0.037c0.53 0.987 1.334 1.8 2.315 2.341 0.946 0.519 2.073 0.824 3.271 0.824 0.039 0 0.079-0 0.118-0.001l-0.006 0c1.3 0.042 2.589-0.26 3.736-0.874l0.041-0.023v-2.836l-0.13 0.095c-0.435 0.319-0.936 0.586-1.473 0.776l-0.041 0.013c-0.439 0.169-0.947 0.273-1.477 0.287l-0.006 0c-0.056 0.003-0.122 0.005-0.188 0.005-1.060 0-2.019-0.434-2.709-1.133l-0-0c-0.668-0.766-1.075-1.775-1.075-2.879 0-0.088 0.003-0.176 0.008-0.262l-0.001 0.012c-0.003-0.066-0.005-0.143-0.005-0.221 0-1.147 0.424-2.195 1.124-2.995l-0.005 0.005c0.694-0.74 1.677-1.2 2.769-1.2 0.047 0 0.094 0.001 0.14 0.003l-0.007-0c1.115 0.018 2.138 0.401 2.958 1.034l-0.012-0.009 0.13 0.094v-2.989l-0.042-0.024c-0.414-0.218-0.894-0.386-1.401-0.479l-0.031-0.005c-0.519-0.115-1.116-0.182-1.728-0.185h-0.002l-0.002 0.001zM66.41 11.778h-3.095v13.157h3.095v-13.157zM64.894 6.173c-0.009-0-0.019-0-0.030-0-0.5 0-0.954 0.197-1.289 0.518l0.001-0.001c-0.34 0.313-0.552 0.76-0.552 1.257 0 0.012 0 0.024 0 0.036l-0-0.002c-0 0.011-0 0.024-0 0.037 0 0.486 0.209 0.924 0.542 1.228l0.001 0.001c0.359 0.334 0.834 0.515 1.325 0.504 0.011 0 0.025 0 0.038 0 0.499 0 0.953-0.191 1.293-0.505l-0.001 0.001c0.341-0.301 0.554-0.74 0.554-1.228 0-0.013-0-0.027-0-0.040l0 0.002c0-0.004 0-0.008 0-0.013 0-0.496-0.207-0.944-0.538-1.263l-0.001-0.001c-0.332-0.329-0.788-0.532-1.292-0.532-0.019 0-0.037 0-0.055 0.001l0.003-0h0.003zM57.17 10.807v14.128h3.158v-18.358h-4.371l-5.556 13.636-5.392-13.636h-4.551v18.357h2.968v-14.128h0.102l5.693 14.128h2.242l5.605-14.128 0.101 0.001zM15.202 15h-14.558v-14.558h14.558v14.558zM31.276 15h-14.558v-14.558h14.558v14.558zM15.202 31.079h-14.558v-14.558h14.558v14.558zM31.276 31.079h-14.558v-14.558h14.558v14.558z"></path>
</svg>
