<!-- Generated by IcoMoon.io -->
<svg version="1.1" xmlns="http://www.w3.org/2000/svg" width="143" height="32" viewBox="0 0 143 32">
<title>vector</title>
<path fill="#718087" d="M24.049 0.646h5.429v17.604c0 9.262-5.789 12.513-14.189 12.513-8.369 0-14.159-3.251-14.159-12.513v-16.899c0-0.491 0.24-0.705 0.72-0.705h5.429v17.328c0 5.551 2.4 7.851 8.009 7.851 5.64 0 8.039-2.3 8.039-7.851v-16.623c0-0.491 0.24-0.705 0.72-0.705zM85.513 5.461v7.422h13.739c0.24 0 0.33 0.123 0.24 0.368l-1.5 3.803c-0.15 0.337-0.36 0.491-0.81 0.491h-8.069c-2.64 0-3.6 0.828-3.6 2.638v5.245h18.598c0.24 0 0.33 0.123 0.24 0.368l-1.56 3.956c-0.15 0.337-0.36 0.491-0.81 0.491h-20.368c-1.56 0-2.16-0.552-2.16-1.748v-25.793c0-1.441 0.78-2.055 2.82-2.055h21.838c0.24 0 0.33 0.123 0.24 0.337l-1.56 3.987c-0.15 0.337-0.36 0.491-0.81 0.491h-16.469zM68.265 22.053c0 5.919-4.080 8.189-9.809 8.189h-15.179c-1.59 0-2.16-0.552-2.16-1.748v-25.793c0-1.441 0.75-2.055 2.82-2.055h12.329c5.4 0 10.619 0.951 10.619 7.514 0 2.822-0.99 5.214-3.36 6.471 3.27 0.889 4.74 3.895 4.74 7.422zM47.087 12.975h9.629c3.18 0 4.080-1.257 4.080-3.834s-0.9-3.803-4.080-3.803h-9.629v7.637zM62.175 21.501c0-2.729-0.93-4.079-4.35-4.079h-7.109c-2.64 0-3.63 0.828-3.63 2.638v5.49h10.739c3.42 0 4.35-1.349 4.35-4.049zM141.967 30.242h-5.52c-0.45 0-0.63-0.184-0.81-0.491l-5.849-10.796h-5.37c-2.64 0-3.63 0.828-3.63 2.638v8.649h-5.279c-0.48 0-0.72-0.245-0.72-0.705v-26.836c0-1.441 0.78-2.055 2.82-2.055h12.389c7.229 0 11.579 1.932 11.579 9.109 0 5.551-2.61 7.729-5.849 8.588l6.509 11.378c0.12 0.184 0.12 0.521-0.27 0.521zM135.488 9.877c0-3.006-0.81-4.478-4.59-4.478h-10.109v8.956h10.109c3.78 0 4.59-1.441 4.59-4.478z"></path>
</svg>
