<!-- Generated by IcoMoon.io -->
<svg version="1.1" xmlns="http://www.w3.org/2000/svg" width="95" height="32" viewBox="0 0 95 32">
<title>vector3</title>
<path fill="#718087" d="M19.575 15.793c1.574 0.126 2.895 0.759 4.028 1.96s1.699 2.845 1.699 4.932c0 2.529-0.818 4.616-2.518 6.133s-4.091 2.276-7.301 2.276h-15.484v-29.971h15.421c2.707 0 4.91 0.759 6.546 2.213 1.637 1.518 2.455 3.478 2.455 5.944 0 1.897-0.504 3.351-1.574 4.489s-2.14 1.707-3.336 1.834l0.063 0.19zM7.364 13.517h6.42c1.070 0 1.951-0.316 2.644-0.948 0.629-0.632 1.007-1.391 1.007-2.466 0-0.948-0.315-1.644-0.944-2.213s-1.448-0.822-2.392-0.822h-6.735v6.45zM14.162 25.151c1.133 0 2.077-0.316 2.707-0.885s0.944-1.391 0.944-2.466c0-1.012-0.315-1.77-1.007-2.339-0.629-0.569-1.511-0.885-2.518-0.885h-6.924v6.576h6.798zM50.795 31.095h-7.113v-2.15c-1.762 1.897-4.091 2.845-6.861 2.845-2.644 0-4.721-0.885-6.294-2.592s-2.392-3.983-2.392-6.766v-13.784h7.050v12.267c0 1.328 0.378 2.403 1.070 3.225s1.637 1.201 2.769 1.201c1.448 0 2.581-0.506 3.399-1.517s1.196-2.593 1.196-4.742v-10.433h7.113l0.063 22.447zM72.762 31.095h-18.883v-1.328l8.875-15.428h-8.623v-5.691h18.505v1.328l-8.875 15.428h8.938v5.691h0.063zM94.667 31.095h-18.82v-1.328l8.812-15.428h-8.623v-5.691h18.505v1.328l-8.875 15.428h8.938l0.063 5.691z"></path>
</svg>
