<svg xmlns="http://www.w3.org/2000/svg" width="165" height="32"><path fill="#718087" d="M55.443.492v12.102H38.582V.492L32.441.487v30.515h6.141V17.893h16.861v13.109h6.151V.492h-6.151zM137.138.493v30.502h26.942l-3.412-5.37h-17.371v-7.732h16.821v-5.172h-16.821V5.737h17.342l3.343-5.244h-26.843zM9.614.485C3.226.485 0 4.368 0 10.019V21.41c0 6.539 4.158 9.592 9.582 9.592L28.849 31l-3.572-5.578H10.772c-3.081 0-4.424-1.114-4.424-4.563V10.525c0-3.334 1.13-4.634 4.506-4.634h14.574l3.43-5.406H9.614zM110.187.477c-3.689 0-7.471 2.217-7.471 7.921v1.466c0 5.946 3.638 8.214 7.278 8.23h12.777c1.327 0 2.405.221 2.405 2.463l-.002 2.591c-.034 2.015-1.039 2.476-2.449 2.476h-16.809l-3.443 5.37h20.648c4.979 0 8.359-2.477 8.359-8.199v-2.103c0-5.532-3.141-8.146-8.01-8.146h-12.2c-1.352 0-2.295-.369-2.295-2.372v-2.11c0-1.706.646-2.329 2.222-2.329l16.008-.006 3.346-5.26-20.364.007zM79.435.493 64.967 31.001h6.838l2.818-6.3h15.722l2.809 6.3h6.868L85.52.493h-6.085zm3.035 6.334 5.559 12.68H76.946l5.524-12.68z"/></svg>