<svg xmlns="http://www.w3.org/2000/svg" width="143" height="32"><path fill="#718087" d="M24.049.646h5.429V18.25c0 9.262-5.789 12.513-14.189 12.513-8.369 0-14.159-3.251-14.159-12.513V1.351c0-.491.24-.705.72-.705h5.429v17.328c0 5.551 2.4 7.851 8.009 7.851 5.64 0 8.039-2.3 8.039-7.851V1.351c0-.491.24-.705.72-.705zm61.464 4.815v7.422h13.739c.24 0 .33.123.24.368l-1.5 3.803c-.15.337-.36.491-.81.491h-8.069c-2.64 0-3.6.828-3.6 2.638v5.245h18.598c.24 0 .33.123.24.368l-1.56 3.956c-.15.337-.36.491-.81.491H81.613c-1.56 0-2.16-.552-2.16-1.748V2.702c0-1.441.78-2.055 2.82-2.055h21.838c.24 0 .33.123.24.337l-1.56 3.987c-.15.337-.36.491-.81.491H85.512zM68.265 22.053c0 5.919-4.08 8.189-9.809 8.189H43.277c-1.59 0-2.16-.552-2.16-1.748V2.701c0-1.441.75-2.055 2.82-2.055h12.329c5.4 0 10.619.951 10.619 7.514 0 2.822-.99 5.214-3.36 6.471 3.27.889 4.74 3.895 4.74 7.422zm-21.178-9.078h9.629c3.18 0 4.08-1.257 4.08-3.834s-.9-3.803-4.08-3.803h-9.629v7.637zm15.088 8.526c0-2.729-.93-4.079-4.35-4.079h-7.109c-2.64 0-3.63.828-3.63 2.638v5.49h10.739c3.42 0 4.35-1.349 4.35-4.049zm79.792 8.741h-5.52c-.45 0-.63-.184-.81-.491l-5.849-10.796h-5.37c-2.64 0-3.63.828-3.63 2.638v8.649h-5.279c-.48 0-.72-.245-.72-.705V2.701c0-1.441.78-2.055 2.82-2.055h12.389c7.229 0 11.579 1.932 11.579 9.109 0 5.551-2.61 7.729-5.849 8.588l6.509 11.378c.12.184.12.521-.27.521zm-6.479-20.365c0-3.006-.81-4.478-4.59-4.478h-10.109v8.956h10.109c3.78 0 4.59-1.441 4.59-4.478z"/></svg>