<svg xmlns="http://www.w3.org/2000/svg" width="102" height="32"><path fill="#718087" d="M53.806 7.947c0 1.14-.913 2.058-2.046 2.058s-2.045-.918-2.045-2.058.881-2.058 2.045-2.058c1.165.032 2.046.95 2.046 2.058zm-8.435 4.148v.507s-.975-1.267-3.052-1.267c-3.43 0-6.106 2.628-6.106 6.269 0 3.609 2.644 6.268 6.106 6.268 2.109 0 3.052-1.298 3.052-1.298v.538c0 .253.189.443.441.443h2.549V11.651h-2.549a.454.454 0 0 0-.441.445zm0 7.629c-.472.697-1.416 1.298-2.549 1.298-2.014 0-3.556-1.266-3.556-3.419s1.542-3.419 3.556-3.419c1.102 0 2.109.633 2.549 1.298v4.242zm4.878-8.073h3.021v11.904h-3.021V11.651zm45.13-.317c-2.077 0-3.053 1.267-3.053 1.267v-6.68h-3.021v17.634h2.549c.252 0 .44-.222.44-.444v-.538s.976 1.298 3.053 1.298c3.431 0 6.105-2.659 6.105-6.268s-2.675-6.27-6.073-6.27zm-.503 9.656c-1.165 0-2.077-.601-2.549-1.298V15.45c.472-.633 1.479-1.298 2.549-1.298 2.014 0 3.556 1.266 3.556 3.419s-1.542 3.419-3.556 3.419zm-7.144-4.495v7.092H84.71v-6.744c0-1.963-.629-2.755-2.328-2.755-.912 0-1.857.475-2.456 1.172v8.295h-3.02V11.651h2.391c.252 0 .441.222.441.443v.507c.881-.918 2.046-1.267 3.21-1.267 1.322 0 2.424.38 3.305 1.14 1.07.887 1.479 2.026 1.479 4.021zm-18.159-5.161c-2.077 0-3.052 1.267-3.052 1.267v-6.68H63.5v17.634h2.549a.452.452 0 0 0 .441-.444v-.538s.976 1.298 3.053 1.298c3.431 0 6.106-2.659 6.106-6.268.031-3.61-2.643-6.27-6.074-6.27zm-.504 9.656c-1.164 0-2.077-.601-2.549-1.298V15.45c.472-.633 1.479-1.298 2.549-1.298 2.015 0 3.556 1.266 3.556 3.419s-1.542 3.419-3.556 3.419zm-8.182-9.656c.912 0 1.385.159 1.385.159v2.817s-2.518-.855-4.091.95v8.326h-3.022V11.651h2.549c.252 0 .44.222.44.443v.507c.567-.665 1.795-1.267 2.738-1.267zM29.51 22.478c-.157-.38-.315-.791-.472-1.14-.252-.57-.504-1.108-.724-1.615l-.032-.032a330.96 330.96 0 0 0-6.955-14.309l-.094-.19c-.258-.493-.51-.989-.755-1.488-.315-.57-.629-1.171-1.133-1.741C18.338.697 16.89 0 15.348 0c-1.574 0-2.99.697-4.028 1.9-.472.57-.819 1.171-1.133 1.741-.246.499-.497.995-.755 1.488l-.095.19c-2.423 4.748-4.784 9.561-6.955 14.309l-.032.063c-.22.507-.472 1.045-.724 1.615-.157.349-.314.728-.472 1.14-.409 1.171-.535 2.279-.378 3.419a6.72 6.72 0 0 0 4.091 5.255 6.416 6.416 0 0 0 2.549.507c.252 0 .566-.032.818-.064a8.255 8.255 0 0 0 3.147-1.076c1.29-.728 2.518-1.773 3.902-3.292 1.385 1.52 2.643 2.564 3.902 3.292a8.301 8.301 0 0 0 3.966 1.14c.881 0 1.762-.158 2.549-.507 2.203-.887 3.745-2.912 4.091-5.255.25-1.108.124-2.215-.285-3.387zm-14.193 1.647c-1.7-2.153-2.801-4.179-3.179-5.888-.157-.728-.189-1.362-.094-1.931.062-.507.252-.95.504-1.33.598-.854 1.605-1.393 2.77-1.393s2.203.507 2.77 1.393c.252.38.44.824.504 1.33.094.57.063 1.235-.095 1.931-.379 1.677-1.48 3.704-3.18 5.888zm12.556 1.488a4.703 4.703 0 0 1-2.864 3.705 4.735 4.735 0 0 1-2.392.316c-.787-.095-1.574-.349-2.392-.823-1.133-.634-2.266-1.615-3.588-3.071 2.077-2.564 3.336-4.907 3.808-6.996.22-.982.252-1.868.157-2.692a5.14 5.14 0 0 0-.85-2.153c-.976-1.425-2.613-2.248-4.438-2.248s-3.462.855-4.437 2.248a5.167 5.167 0 0 0-.85 2.153 6.61 6.61 0 0 0 .157 2.692c.472 2.089 1.762 4.464 3.808 7.028-1.29 1.456-2.455 2.438-3.588 3.071-.818.475-1.605.728-2.391.823a5.02 5.02 0 0 1-2.392-.316 4.702 4.702 0 0 1-2.864-3.705 5.27 5.27 0 0 1 .283-2.469c.094-.317.252-.633.409-1.013.22-.507.472-1.045.724-1.583l.032-.063a345.8 345.8 0 0 1 6.923-14.215l.094-.19c.252-.474.504-.981.755-1.456.252-.507.535-.982.881-1.393.661-.759 1.542-1.171 2.518-1.171s1.857.412 2.518 1.171c.346.413.629.888.881 1.394.252.475.504.982.755 1.456l.095.19a421.407 421.407 0 0 1 6.892 14.246v.032c.252.507.472 1.077.724 1.584.157.379.315.696.409 1.012.251.822.346 1.614.22 2.437z"/></svg>