<svg xmlns="http://www.w3.org/2000/svg" width="95" height="32"><path fill="#718087" d="M19.575 15.793c1.574.126 2.895.759 4.028 1.96s1.699 2.845 1.699 4.932c0 2.529-.818 4.616-2.518 6.133s-4.091 2.276-7.301 2.276H-.001V1.123H15.42c2.707 0 4.91.759 6.546 2.213 1.637 1.518 2.455 3.478 2.455 5.944 0 1.897-.504 3.351-1.574 4.489s-2.14 1.707-3.336 1.834l.063.19zM7.364 13.517h6.42c1.07 0 1.951-.316 2.644-.948.629-.632 1.007-1.391 1.007-2.466 0-.948-.315-1.644-.944-2.213s-1.448-.822-2.392-.822H7.364v6.45zm6.798 11.634c1.133 0 2.077-.316 2.707-.885s.944-1.391.944-2.466c0-1.012-.315-1.77-1.007-2.339-.629-.569-1.511-.885-2.518-.885H7.364v6.576h6.798zm36.633 5.944h-7.113v-2.15c-1.762 1.897-4.091 2.845-6.861 2.845-2.644 0-4.721-.885-6.294-2.592s-2.392-3.983-2.392-6.766V8.648h7.05v12.267c0 1.328.378 2.403 1.07 3.225s1.637 1.201 2.769 1.201c1.448 0 2.581-.506 3.399-1.517s1.196-2.593 1.196-4.742V8.649h7.113l.063 22.447zm21.967 0H53.879v-1.328l8.875-15.428h-8.623V8.648h18.505v1.328l-8.875 15.428h8.938v5.691h.063zm21.905 0h-18.82v-1.328l8.812-15.428h-8.623V8.648h18.505v1.328l-8.875 15.428h8.938l.063 5.691z"/></svg>