<svg xmlns="http://www.w3.org/2000/svg" width="145" height="32"><path fill="#718087" d="M144.153 14.303v-2.524h-3.134V7.855l-.105.033-3.001.918v2.973h-4.647v-1.657a2.63 2.63 0 0 1 .512-1.755 1.8 1.8 0 0 1 1.436-.586c.471.006.935.112 1.362.31l.115.052V5.487l-.054-.02a5.294 5.294 0 0 0-1.741-.232 5.092 5.092 0 0 0-2.469.593 4.22 4.22 0 0 0-1.694 1.675 5.001 5.001 0 0 0-.6 2.457v1.82h-2.182v2.524h2.182v10.632h3.133V14.304h4.647v6.754c0 2.785 1.312 4.193 3.902 4.193a6.467 6.467 0 0 0 1.33-.147c.336-.057.661-.16.969-.307l.041-.025v-2.547l-.128.084a2.19 2.19 0 0 1-.63.272 2.41 2.41 0 0 1-.619.105 1.686 1.686 0 0 1-1.334-.486 2.613 2.613 0 0 1-.425-1.686v-6.211h3.134zm-23.2 8.384a3.326 3.326 0 0 1-2.666-1.12 4.757 4.757 0 0 1-.958-3.163 4.94 4.94 0 0 1 .958-3.247 3.27 3.27 0 0 1 2.639-1.137 3.213 3.213 0 0 1 2.57 1.087 4.848 4.848 0 0 1 .939 3.22 5.169 5.169 0 0 1-.883 3.26 3.147 3.147 0 0 1-2.6 1.1zm.139-11.23a6.865 6.865 0 0 0-5.121 1.89 7.095 7.095 0 0 0-1.85 5.158 6.717 6.717 0 0 0 1.806 4.924 6.547 6.547 0 0 0 4.848 1.819 6.68 6.68 0 0 0 5.02-1.915 7.077 7.077 0 0 0 1.851-5.106 6.892 6.892 0 0 0-1.735-4.958 6.389 6.389 0 0 0-4.817-1.808v-.002zm-12.022.002a5.664 5.664 0 0 0-3.629 1.121 3.58 3.58 0 0 0-1.414 2.921 4.085 4.085 0 0 0 .305 1.63c.211.476.531.895.936 1.223a8.114 8.114 0 0 0 1.902 1.065c.543.213 1.072.46 1.584.738.27.141.507.336.697.573.14.223.207.484.194.747 0 .883-.662 1.314-2.024 1.314a5.581 5.581 0 0 1-1.712-.313 6.457 6.457 0 0 1-1.754-.889l-.13-.093v3.016l.048.022c.533.233 1.09.405 1.661.513a8.966 8.966 0 0 0 1.773.204 6.023 6.023 0 0 0 3.832-1.128 3.646 3.646 0 0 0 1.427-2.989 3.436 3.436 0 0 0-.768-2.26 6.582 6.582 0 0 0-2.608-1.661 6.724 6.724 0 0 1-1.858-.966c-.129-.134-.229-.293-.293-.468s-.092-.36-.082-.546a1.121 1.121 0 0 1 .476-.937c.39-.27.859-.402 1.333-.376a5.474 5.474 0 0 1 1.587.244c.492.143.959.36 1.386.643l.128.088v-2.858l-.049-.021a6.887 6.887 0 0 0-1.407-.393 8.593 8.593 0 0 0-1.543-.16l.004-.003zM95.86 22.687a3.326 3.326 0 0 1-2.666-1.12 4.751 4.751 0 0 1-.957-3.159 4.94 4.94 0 0 1 .958-3.247 3.257 3.257 0 0 1 2.64-1.138 3.213 3.213 0 0 1 2.57 1.087 4.848 4.848 0 0 1 .939 3.22 5.169 5.169 0 0 1-.883 3.26 3.147 3.147 0 0 1-2.6 1.099l-.001-.002zm.141-11.227a6.864 6.864 0 0 0-5.121 1.889 7.095 7.095 0 0 0-1.851 5.158 6.717 6.717 0 0 0 1.807 4.924 6.547 6.547 0 0 0 4.848 1.819 6.68 6.68 0 0 0 5.02-1.915 7.077 7.077 0 0 0 1.851-5.106 6.895 6.895 0 0 0-1.736-4.959c-.634-.618-1.389-1.098-2.218-1.41s-1.714-.447-2.598-.398v-.002zm-11.727 2.597v-2.279h-3.095v13.156h3.095v-6.73a4.689 4.689 0 0 1 .772-2.794 2.367 2.367 0 0 1 2.003-1.057c.315.005.627.05.93.136.255.057.499.155.721.292l.13.094v-3.119l-.05-.022a3.203 3.203 0 0 0-1.212-.184 3.177 3.177 0 0 0-2.07.742 4.194 4.194 0 0 0-1.191 1.766l-.035-.001zm-8.637-2.596a7.64 7.64 0 0 0-3.763.905 6.097 6.097 0 0 0-2.482 2.553 8.124 8.124 0 0 0-.852 3.781 6.976 6.976 0 0 0 .829 3.389c.53.987 1.334 1.8 2.315 2.341a6.906 6.906 0 0 0 3.383.823c1.3.042 2.589-.26 3.736-.874l.041-.023V21.52l-.13.095a5.808 5.808 0 0 1-1.514.789 4.583 4.583 0 0 1-1.483.287 3.804 3.804 0 0 1-2.897-1.129 4.391 4.391 0 0 1-1.068-3.129 4.552 4.552 0 0 1 1.114-3.211 3.793 3.793 0 0 1 2.902-1.198 4.972 4.972 0 0 1 2.946 1.025l.13.094v-2.989l-.042-.024a5.077 5.077 0 0 0-1.432-.484 8.53 8.53 0 0 0-1.73-.185l-.002.001zm-9.227.317h-3.095v13.157h3.095V11.778zm-1.516-5.605a1.863 1.863 0 0 0-1.318.517 1.707 1.707 0 0 0-.552 1.291 1.662 1.662 0 0 0 .543 1.266c.359.334.834.515 1.325.504a1.91 1.91 0 0 0 1.33-.503 1.637 1.637 0 0 0 .554-1.266 1.75 1.75 0 0 0-.539-1.276 1.836 1.836 0 0 0-1.345-.531h.003zm-7.724 4.634v14.128h3.158V6.577h-4.371l-5.556 13.636-5.392-13.636h-4.551v18.357h2.968V10.806h.102l5.693 14.128h2.242l5.605-14.128.101.001zM15.202 15H.644V.442h14.558V15zM31.276 15H16.718V.442h14.558V15zM15.202 31.079H.644V16.521h14.558v14.558zM31.276 31.079H16.718V16.521h14.558v14.558z"/></svg>